<svg xmlns="http://www.w3.org/2000/svg" xmlns:xlink="http://www.w3.org/1999/xlink" width="100" height="100" viewBox="0 0 100 100">
  <defs>
    <clipPath id="clip-path">
      <rect id="Rectangle_5331" data-name="Rectangle 5331" width="100" height="100" transform="translate(121 1788)" fill="#fff" stroke="#707070" stroke-width="1"/>
    </clipPath>
    <linearGradient id="linear-gradient" x1="0.5" x2="0.5" y2="0.58" gradientUnits="objectBoundingBox">
      <stop offset="0" stop-color="#00ffba"/>
      <stop offset="1" stop-color="#fff" stop-opacity="0"/>
    </linearGradient>
  </defs>
  <g id="map_robot" transform="translate(-121 -1788)" clip-path="url(#clip-path)">
    <g id="Group_10515" data-name="Group 10515" transform="translate(-797.5 1311.872)">
      <path id="Polygon_12" data-name="Polygon 12" d="M71.5,0,143,109H0Z" transform="translate(1040 549) rotate(180)" fill="url(#linear-gradient)"/>
      <g id="Group_10505" data-name="Group 10505" transform="translate(27 43)">
        <g id="Group_10501" data-name="Group 10501" transform="translate(920 490.222)">
          <g id="Rectangle_5325" data-name="Rectangle 5325" fill="rgba(0,110,148,0.8)" stroke="#006e94" stroke-width="5">
            <path d="M21.989,0h0A21.989,21.989,0,0,1,43.977,21.989V37.537a5.5,5.5,0,0,1-5.5,5.5H5.5a5.5,5.5,0,0,1-5.5-5.5V21.989A21.989,21.989,0,0,1,21.989,0Z" stroke="none"/>
            <path d="M21.989,2.5h0A19.489,19.489,0,0,1,41.477,21.989V36.637a3.9,3.9,0,0,1-3.9,3.9H6.4a3.9,3.9,0,0,1-3.9-3.9V21.989A19.489,19.489,0,0,1,21.989,2.5Z" fill="none"/>
          </g>
        </g>
        <g id="Ellipse_1308" data-name="Ellipse 1308" transform="translate(936.492 506.117)" fill="#fff" stroke="#006e94" stroke-width="3">
          <circle cx="5.497" cy="5.497" r="5.497" stroke="none"/>
          <circle cx="5.497" cy="5.497" r="6.997" fill="none"/>
        </g>
        <path id="Path_25515" data-name="Path 25515" d="M348.179,210.15a21,21,0,0,1,12.368,4.046L348.179,201,335.81,214.2A21,21,0,0,1,348.179,210.15Z" transform="translate(593.195 277.282)" fill="#454545"/>
      </g>
    </g>
  </g>
</svg>
